<?xml version="1.0" standalone="no"?>
<!DOCTYPE svg PUBLIC "-//W3C//DTD SVG 20010904//EN"
 "http://www.w3.org/TR/2001/REC-SVG-20010904/DTD/svg10.dtd">
<svg version="1.0" xmlns="http://www.w3.org/2000/svg"
 width="1462.000000pt" height="1462.000000pt" viewBox="0 0 1462.000000 1462.000000"
 preserveAspectRatio="xMidYMid meet">
<metadata>
Created by potrace 1.14, written by Peter Selinger 2001-2017
</metadata>
<g transform="translate(0.000000,1462.000000) scale(0.100000,-0.100000)"
fill="#000000" stroke="none">
<path d="M6615 13939 c-1797 -64 -3092 -303 -4365 -806 -316 -125 -450 -198
-529 -290 -42 -49 -119 -195 -142 -268 -18 -59 -23 -588 -10 -980 50 -1465
236 -2734 577 -3945 302 -1073 778 -2177 1335 -3096 548 -904 1334 -1870 2094
-2574 578 -535 1368 -1168 1610 -1290 108 -55 164 -61 234 -25 165 83 655 450
1056 790 2898 2456 4365 5588 4575 9770 17 347 33 1025 27 1160 -8 157 -23
220 -84 338 -82 159 -168 225 -453 348 -1086 469 -2464 760 -4030 849 -531 30
-1359 39 -1895 19z m289 -443 c70 -34 164 -135 205 -218 67 -137 98 -351 88
-603 -12 -288 -64 -438 -201 -583 -57 -60 -132 -82 -277 -82 -154 0 -205 26
-280 143 -76 117 -116 283 -125 522 -10 249 18 438 87 582 53 111 183 226 299
264 46 15 147 3 204 -25z m966 -7 c197 -24 280 -81 341 -234 20 -52 23 -78 24
-185 0 -121 -1 -127 -33 -194 -24 -51 -51 -87 -104 -137 l-71 -68 111 -323
c62 -178 112 -326 112 -330 0 -5 -48 -8 -107 -8 -154 1 -146 -10 -248 290 -72
210 -99 271 -142 317 -23 25 -34 29 -60 26 -18 -3 -38 -12 -44 -20 -9 -10 -14
-99 -17 -310 l-5 -295 -99 4 c-74 2 -101 7 -109 18 -10 15 -3 1436 8 1453 6
11 347 8 443 -4z m1123 -58 c80 -31 153 -105 200 -201 20 -41 40 -94 43 -117
6 -37 4 -43 -22 -59 -20 -14 -46 -18 -99 -18 -84 0 -125 19 -125 59 0 31 -67
107 -114 129 -57 27 -85 21 -132 -29 -33 -34 -49 -62 -67 -122 -63 -201 -57
-591 11 -746 56 -126 182 -182 265 -117 53 42 94 205 65 260 -11 21 -24 26
-73 32 -38 5 -65 14 -72 25 -8 10 -13 49 -13 98 0 121 -5 118 170 100 165 -17
205 -28 221 -58 20 -36 23 -222 5 -346 -27 -196 -87 -292 -212 -342 -50 -20
-77 -23 -174 -23 -148 0 -209 21 -291 104 -105 105 -151 243 -171 516 -31 425
46 724 214 830 91 58 256 69 371 25z m-3088 -15 c128 -40 196 -126 217 -273
14 -103 1 -166 -62 -287 -55 -104 -56 -100 16 -176 47 -50 65 -100 71 -199 12
-195 -65 -373 -191 -446 -71 -40 -252 -74 -550 -100 l-79 -8 8 739 c4 407 8
740 9 741 1 1 58 9 126 17 154 18 364 15 435 -8z m3675 -41 c30 -8 67 -15 81
-15 15 0 31 -6 37 -13 7 -8 15 -110 21 -253 6 -131 15 -254 22 -272 6 -19 23
-39 40 -47 26 -14 254 -55 307 -55 l22 0 0 285 0 285 58 -6 c31 -4 75 -10 97
-13 l40 -7 8 -499 c10 -638 6 -877 -16 -927 -14 -34 -20 -38 -52 -38 -53 0
-103 25 -117 57 -8 19 -13 130 -16 330 l-4 301 -71 16 c-149 31 -222 39 -260
27 -32 -11 -36 -16 -42 -59 -4 -26 -10 -167 -14 -314 -4 -147 -10 -270 -14
-274 -10 -11 -180 14 -188 28 -24 39 -29 173 -29 806 0 633 1 672 18 672 9 0
42 -7 72 -15z m-4510 -22 c12 -481 16 -937 11 -1145 -6 -240 -9 -269 -26 -288
-10 -11 -30 -20 -44 -20 -15 0 -50 -6 -79 -13 -89 -24 -86 -35 -92 373 -4 305
-9 377 -23 359 -2 -2 -48 -161 -102 -354 -133 -476 -139 -495 -145 -495 -3 0
-47 125 -99 278 -120 355 -150 434 -164 429 -9 -3 -13 -95 -17 -328 -4 -287
-7 -328 -22 -351 -20 -30 -60 -41 -123 -36 -70 5 -69 1 -73 518 -4 406 9 884
23 922 6 16 100 38 162 38 23 0 48 -7 56 -14 20 -21 80 -194 173 -498 43 -142
82 -258 86 -258 4 0 11 15 16 33 51 178 228 739 244 774 11 24 31 51 43 59 26
17 92 31 153 33 34 1 42 -2 42 -16z m5687 -178 c33 -10 57 -24 65 -38 26 -46
21 -1417 -5 -1443 -3 -3 -54 2 -112 12 l-107 17 4 721 c3 397 8 729 13 740 9
21 51 19 142 -9z m-7193 -142 c79 -246 326 -1230 326 -1302 0 -28 -3 -30 -69
-45 -39 -9 -88 -16 -111 -16 -50 0 -54 7 -100 203 -18 75 -37 137 -42 137 -29
0 -243 -51 -255 -61 -23 -20 -41 -61 -48 -114 -13 -94 -36 -230 -46 -267 -11
-41 -19 -45 -160 -79 -46 -11 -86 -16 -89 -12 -4 5 41 222 101 483 213 935
233 1012 268 1059 21 28 110 60 168 61 41 0 42 -1 57 -47z m7691 21 c66 -31
118 -128 263 -489 55 -137 107 -266 116 -285 21 -48 53 -86 63 -77 13 14 21
175 22 455 1 144 4 262 9 262 16 -1 174 -48 180 -55 4 -4 7 -323 7 -709 0
-655 -1 -704 -18 -729 -21 -32 -35 -33 -88 -7 -36 19 -46 33 -113 173 -60 123
-220 513 -322 782 l-19 50 -12 -140 c-6 -77 -12 -246 -12 -375 -1 -224 -8
-301 -29 -322 -14 -14 -180 23 -187 42 -14 35 -24 428 -25 918 l0 522 66 0
c39 0 79 -6 99 -16z m1062 -335 c48 -17 95 -37 103 -45 13 -13 15 -108 14
-739 0 -399 -4 -728 -8 -732 -4 -4 -53 8 -109 27 l-102 36 -3 729 c-1 402 0
736 3 743 6 16 0 17 102 -19z m-9913 -11 c3 -18 7 -51 10 -73 3 -22 10 -283
15 -579 6 -296 13 -541 15 -544 3 -2 100 27 216 66 240 81 225 83 225 -29 0
-75 -13 -98 -75 -129 -53 -27 -556 -220 -573 -220 -11 0 -16 22 -21 98 -11
168 -25 744 -26 1064 l0 306 88 35 c111 45 120 45 126 5z m5403 -1083 c314
-42 753 -182 798 -255 25 -40 -104 -42 -357 -6 -95 14 -205 28 -245 32 -65 6
-72 5 -82 -14 -9 -17 -7 -24 15 -41 30 -23 23 -21 176 -56 65 -15 120 -30 123
-35 9 -15 -24 -31 -118 -55 -238 -60 -502 -39 -834 68 -275 89 -386 81 -455
-33 -42 -71 -44 -86 -10 -119 79 -80 361 -109 1362 -141 701 -22 870 -47 1020
-151 131 -89 225 -193 262 -292 42 -111 19 -380 -46 -535 -14 -34 -26 -72 -26
-84 0 -13 18 -50 41 -83 58 -86 111 -194 154 -315 47 -133 62 -162 146 -286
74 -108 135 -237 164 -347 16 -59 17 -92 11 -259 -5 -164 -10 -204 -33 -287
-37 -132 -36 -229 5 -431 26 -130 32 -189 38 -365 l7 -209 46 -50 c65 -69 274
-252 330 -287 71 -46 160 -68 320 -79 79 -5 146 -12 149 -14 8 -9 -25 -52 -95
-127 -168 -178 -386 -202 -732 -79 -58 20 -119 40 -135 44 -28 7 -29 6 -23
-27 3 -19 33 -100 66 -179 77 -186 80 -211 45 -408 -36 -204 -38 -436 -5 -604
12 -64 21 -149 21 -202 0 -67 7 -117 26 -185 14 -52 32 -120 41 -151 8 -32 13
-68 9 -82 -9 -36 -90 -138 -126 -159 -40 -24 -56 -17 -64 25 -3 19 -15 41 -25
50 -18 15 -21 15 -39 -5 -11 -12 -27 -36 -35 -53 -32 -62 -82 -49 -175 47 -78
80 -79 92 -17 294 24 79 28 109 30 245 2 121 7 175 25 245 28 112 24 176 -19
305 -33 97 -155 357 -189 398 l-18 23 -134 -97 c-234 -168 -324 -259 -399
-403 -49 -95 -68 -161 -86 -300 -8 -60 -20 -131 -26 -158 -18 -75 -66 -158
-123 -212 -47 -44 -59 -50 -122 -60 -161 -27 -519 -39 -586 -21 -64 18 -139
124 -171 241 -40 146 -134 356 -178 395 -20 18 -21 18 -40 -5 -41 -51 -63
-147 -65 -294 l-2 -137 -55 -118 c-31 -64 -65 -149 -76 -187 -27 -94 -71 -144
-164 -190 -109 -53 -248 -73 -281 -39 -18 18 -19 24 -16 82 2 38 0 42 -22 42
-15 0 -32 -11 -46 -30 -41 -55 -85 -31 -85 46 0 61 83 228 157 314 113 131
179 227 233 336 99 204 69 279 -73 181 -65 -45 -137 -135 -181 -227 -44 -93
-79 -137 -214 -268 -59 -56 -130 -137 -159 -178 -47 -68 -310 -594 -310 -620
0 -20 -82 -92 -139 -122 -63 -34 -161 -62 -216 -62 l-37 0 7 79 c8 94 -3 106
-61 60 -20 -16 -44 -29 -54 -29 -42 0 -70 74 -70 186 0 81 19 128 85 208 56
68 215 206 315 276 162 112 224 197 290 398 23 69 55 155 71 190 36 81 36 95
0 121 -46 33 -61 85 -61 216 0 195 -45 359 -113 409 l-29 21 -24 -30 c-37 -46
-130 -208 -255 -445 -133 -252 -162 -319 -219 -500 -50 -161 -114 -290 -211
-425 -117 -164 -124 -184 -138 -395 -12 -160 -32 -243 -79 -318 -30 -47 -51
-103 -93 -240 -41 -135 -88 -175 -245 -213 -82 -19 -211 -28 -232 -15 -18 11
-21 60 -7 127 8 36 12 75 8 87 -5 20 -7 20 -28 6 -13 -9 -42 -40 -65 -70 -45
-60 -70 -68 -96 -29 -46 71 33 249 186 420 15 17 41 64 59 106 20 47 61 112
109 173 238 303 241 310 267 520 20 164 51 280 106 396 84 174 89 196 100 480
12 319 28 435 85 612 117 366 130 419 144 607 18 244 64 408 180 646 38 77
105 196 150 265 188 289 241 419 270 665 46 384 168 612 429 798 42 30 153 99
246 153 270 155 402 246 620 429 229 191 298 237 384 256 72 15 126 4 380 -82
399 -135 665 -210 879 -246 100 -17 103 -17 138 2 46 24 87 84 114 166 27 79
24 191 -8 262 -43 96 -161 193 -289 236 -118 40 -313 55 -893 71 -777 21
-1161 58 -1292 126 -65 34 -138 98 -149 133 -37 112 50 256 228 374 122 81
301 142 488 166 114 14 335 12 462 -4z"/>
<path d="M6699 13257 c-46 -31 -93 -95 -120 -164 -22 -54 -23 -72 -23 -273 0
-370 37 -519 143 -578 65 -37 109 -25 173 46 65 72 90 261 77 582 -7 161 -18
227 -52 295 -51 104 -127 140 -198 92z"/>
<path d="M7632 13108 c3 -101 10 -195 16 -210 8 -20 21 -29 46 -33 41 -8 168
16 221 41 53 25 88 83 93 153 6 85 -27 139 -110 182 -37 19 -185 49 -241 49
l-29 0 4 -182z"/>
<path d="M5578 13214 c-11 -10 -10 -356 1 -372 13 -21 181 10 237 43 55 32 79
90 71 169 -12 116 -57 150 -208 161 -52 4 -97 4 -101 -1z"/>
<path d="M5653 12621 c-73 -19 -83 -50 -83 -273 l0 -168 58 0 c69 0 173 24
209 47 69 45 96 206 50 294 -44 82 -141 124 -234 100z"/>
<path d="M3426 12589 c-30 -133 -76 -386 -72 -396 8 -19 40 -16 96 8 54 23 67
51 55 112 -15 75 -67 292 -70 296 -2 2 -6 -7 -9 -20z"/>
<path d="M7611 11341 c-39 -25 39 -73 137 -86 66 -9 172 3 151 16 -21 14 -232
79 -255 79 -10 0 -25 -4 -33 -9z"/>
<path d="M1117 12327 c-10 -26 -9 -215 2 -221 18 -12 27 121 13 199 -6 30 -9
36 -15 22z"/>
<path d="M1110 11895 c0 -58 13 -73 24 -29 8 31 -1 84 -15 84 -5 0 -9 -25 -9
-55z"/>
</g>
</svg>
